<svg width="1675" height="510" viewBox="0 0 1675 510" fill="none" xmlns="http://www.w3.org/2000/svg">
<path fill-rule="evenodd" clip-rule="evenodd" d="M1047.89 497.892L1098.8 506.047C1099.76 506.201 1100.4 507.207 1100.22 508.293C1100.05 509.379 1099.13 510.136 1098.17 509.982L1047.26 501.826C1046.3 501.673 1045.66 500.667 1045.84 499.581C1046.01 498.495 1046.93 497.738 1047.89 497.892ZM2.74155 494.968L73.2865 503.106C74.6142 503.26 75.5495 504.604 75.3753 506.109C75.2009 507.615 73.9826 508.712 72.6546 508.559L2.10971 500.42C0.781792 500.267 -0.153193 498.922 0.020843 497.417C0.195209 495.912 1.41334 494.815 2.74155 494.968ZM1055.61 465.497C1053.82 476.614 1057.73 482.734 1057.75 482.768C1057.77 482.8 1060.94 490.568 1074.85 492.797C1088.76 495.024 1093.37 488.514 1093.4 488.478C1093.43 488.439 1099.47 481.242 1100.94 472.086L1106.8 473.023C1107.55 472.917 1108.32 472.898 1109.1 472.976C1111.05 473.171 1112.9 473.954 1114.36 475.209C1115.83 476.464 1116.83 478.123 1117.23 479.94C1117.63 481.758 1117.39 483.637 1116.57 485.299C1115.74 486.96 1114.36 488.317 1112.63 489.165C1110.91 490.013 1108.93 490.308 1106.99 490.007C1105.05 489.706 1103.25 488.825 1101.86 487.494C1101.81 487.444 1101.76 487.391 1101.71 487.34C1100.29 489.459 1098.7 491.333 1096.98 492.855C1090.54 497.326 1090.02 500.604 1074.01 498.04C1058.01 495.476 1058.34 492.994 1053.21 485.844C1048.09 478.693 1048.77 472.429 1050.03 464.604L1055.61 465.497ZM1545.58 493.399C1546.62 493.442 1547.42 494.435 1547.38 495.616C1547.33 496.797 1546.44 497.72 1545.4 497.678L1490.04 495.432C1488.99 495.389 1488.19 494.397 1488.24 493.216C1488.28 492.035 1489.17 491.111 1490.21 491.152L1545.58 493.399ZM11.3949 449.931C9.61023 465.338 15.3626 473.522 15.391 473.562C15.391 473.562 20.2073 484.098 39.5287 486.327C58.776 488.548 64.7331 479.332 64.7787 479.261C64.8217 479.205 72.694 468.936 74.1634 456.251L82.2728 457.187C83.3064 456.994 84.3696 456.923 85.4378 456.982C88.1369 457.133 90.725 458.098 92.8167 459.735C94.9085 461.373 96.3923 463.596 97.0492 466.072C97.7059 468.549 97.5001 471.148 96.4622 473.484C95.4243 475.82 93.6102 477.77 91.2884 479.041C88.9663 480.312 86.2599 480.839 83.5726 480.543C80.8852 480.247 78.359 479.142 76.3695 477.395C76.2941 477.328 76.2214 477.259 76.1478 477.191C74.3288 480.192 72.2417 482.867 69.9808 485.065C61.3913 491.606 60.8646 496.148 38.6878 493.59C16.5112 491.031 16.8215 487.597 9.33432 478.069C1.84695 468.541 2.41036 459.883 3.66635 449.039L11.3949 449.931ZM1058.49 465.412C1058.52 465.431 1068.9 471.901 1078.01 468.54C1087.11 465.181 1097.49 471.64 1097.53 471.667C1096.61 477.373 1093.68 482.516 1089.37 485.965C1085.06 489.413 1079.73 490.883 1074.55 490.054C1069.37 489.224 1064.77 486.163 1061.76 481.542C1058.74 476.921 1057.57 471.118 1058.49 465.412ZM1494.32 455.606C1493.83 467.729 1498.81 473.765 1498.81 473.765C1498.85 473.834 1503.24 481.686 1518.33 482.299C1533.5 482.914 1537.57 475.337 1537.57 475.337C1537.63 475.253 1543.13 466.823 1543.53 456.89L1549.9 457.147C1550.69 456.938 1551.52 456.821 1552.35 456.806C1554.46 456.766 1556.53 457.368 1558.25 458.521C1559.97 459.673 1561.26 461.317 1561.91 463.206C1562.57 465.095 1562.56 467.13 1561.89 469.008C1561.22 470.886 1559.92 472.507 1558.18 473.631C1556.45 474.755 1554.38 475.322 1552.27 475.247C1550.16 475.172 1548.13 474.459 1546.48 473.215C1546.42 473.168 1546.36 473.118 1546.3 473.069C1545.05 475.509 1543.59 477.711 1541.96 479.553C1535.65 485.14 1535.51 488.705 1518.1 487.999C1500.7 487.293 1500.74 484.602 1494.36 477.621C1487.98 470.641 1487.91 463.871 1488.26 455.36L1494.32 455.606ZM1108.69 477.38C1107.83 477.294 1106.97 477.45 1106.21 477.822C1105.66 479.601 1104.98 481.331 1104.19 482.976C1104.41 483.511 1104.75 484.004 1105.18 484.42C1105.85 485.065 1106.73 485.492 1107.67 485.638C1108.61 485.783 1109.57 485.641 1110.4 485.229C1111.24 484.818 1111.91 484.161 1112.31 483.355C1112.71 482.55 1112.82 481.638 1112.63 480.757C1112.44 479.876 1111.95 479.07 1111.24 478.462C1110.53 477.854 1109.64 477.474 1108.69 477.38ZM15.3441 449.64C15.3441 449.64 30.0456 457.944 42.3939 452.761C54.7422 447.577 69.4456 455.882 69.4456 455.882C68.5298 463.788 64.8008 471.042 59.0804 476.047C53.3601 481.052 46.1158 483.399 38.9417 482.571C31.7678 481.744 25.2508 477.809 20.8255 471.634C16.4002 465.458 14.4283 457.546 15.3441 449.64ZM1519.05 455.799C1528.29 451.439 1539.84 456.875 1539.84 456.875C1539.59 463.08 1537.11 468.941 1532.95 473.167C1528.79 477.393 1523.29 479.639 1517.66 479.41C1512.03 479.182 1506.73 476.497 1502.93 471.948C1499.12 467.399 1497.13 461.357 1497.38 455.152C1497.44 455.179 1508.96 460.577 1518.17 456.229L1519.05 455.799ZM85.1439 463.065C83.954 462.999 82.7769 463.264 81.7572 463.821C81.1135 466.304 80.285 468.727 79.2972 471.04C79.6341 471.762 80.1254 472.419 80.7464 472.964C81.7111 473.811 82.9365 474.346 84.2396 474.489C85.5425 474.633 86.854 474.377 87.9798 473.761C89.1055 473.144 89.9862 472.2 90.4896 471.067C90.9926 469.935 91.0921 468.674 90.7738 467.474C90.4553 466.273 89.7353 465.194 88.721 464.4C87.7069 463.607 86.4524 463.138 85.1439 463.065ZM1552.47 461.557C1551.54 461.574 1550.64 461.85 1549.88 462.343C1549.53 464.31 1549.02 466.243 1548.39 468.099C1548.69 468.641 1549.11 469.124 1549.63 469.513C1550.43 470.116 1551.41 470.462 1552.43 470.498C1553.46 470.534 1554.46 470.26 1555.3 469.715C1556.14 469.17 1556.77 468.384 1557.1 467.474C1557.42 466.563 1557.43 465.576 1557.11 464.66C1556.8 463.744 1556.17 462.947 1555.34 462.388C1554.5 461.829 1553.5 461.538 1552.47 461.557ZM1142.54 308.377L1189.98 315.977C1190.87 316.12 1191.47 317.056 1191.3 318.068C1191.14 319.081 1190.29 319.787 1189.39 319.644L1141.95 312.044C1141.06 311.901 1140.47 310.963 1140.63 309.95C1140.79 308.938 1141.65 308.234 1142.54 308.377ZM1149.73 278.19C1148.06 288.578 1151.73 294.285 1151.73 294.285C1151.77 294.372 1154.75 301.561 1167.67 303.63C1180.59 305.7 1184.9 299.67 1184.94 299.605C1184.94 299.605 1190.6 292.885 1191.97 284.331L1197.43 285.204C1198.13 285.105 1198.85 285.089 1199.57 285.161C1201.39 285.343 1203.11 286.072 1204.48 287.241C1205.84 288.41 1206.78 289.957 1207.15 291.65C1207.52 293.344 1207.3 295.095 1206.53 296.644C1205.76 298.192 1204.48 299.455 1202.87 300.245C1201.26 301.035 1199.42 301.311 1197.61 301.03C1195.8 300.75 1194.13 299.928 1192.84 298.688C1192.79 298.641 1192.74 298.593 1192.69 298.545C1191.37 300.519 1189.88 302.265 1188.29 303.684C1182.29 307.849 1181.79 310.905 1166.88 308.516C1151.97 306.126 1152.28 303.813 1147.5 297.15C1142.72 290.487 1143.36 284.65 1144.54 277.357L1149.73 278.19ZM1152.41 278.112C1152.41 278.112 1161.8 283.975 1170.21 281.167L1171 280.886C1179.38 278.086 1188.74 283.904 1188.8 283.94C1187.94 289.257 1185.2 294.049 1181.19 297.263C1177.17 300.476 1172.2 301.847 1167.38 301.074C1162.56 300.301 1158.27 297.448 1155.46 293.142C1152.65 288.835 1151.56 283.429 1152.41 278.112ZM1199.19 289.264C1198.39 289.184 1197.59 289.329 1196.88 289.676C1196.37 291.333 1195.74 292.945 1195 294.478C1195.21 294.976 1195.52 295.436 1195.93 295.823C1196.55 296.424 1197.36 296.823 1198.24 296.959C1199.12 297.095 1200.01 296.961 1200.79 296.578C1201.57 296.195 1202.19 295.582 1202.57 294.831C1202.94 294.08 1203.05 293.231 1202.87 292.41C1202.69 291.589 1202.23 290.839 1201.57 290.272C1200.91 289.706 1200.08 289.352 1199.19 289.264ZM1594.61 263.027C1595.14 261.968 1596.32 261.485 1597.26 261.948L1646.89 286.547C1647.82 287.01 1648.15 288.244 1647.63 289.303C1647.1 290.362 1645.91 290.845 1644.98 290.382L1595.35 265.783C1594.42 265.32 1594.09 264.086 1594.61 263.027ZM1615.55 231.172C1610.16 242.005 1612.21 249.53 1612.22 249.575C1612.22 249.634 1613.01 258.603 1626.55 265.318C1640.08 272.025 1646.9 266.845 1646.96 266.797C1647.02 266.762 1655.51 261.303 1659.95 252.383L1665.66 255.211C1666.47 255.343 1667.27 255.571 1668.03 255.896C1669.97 256.719 1671.62 258.111 1672.72 259.865C1673.82 261.62 1674.32 263.643 1674.15 265.635C1673.97 267.626 1673.13 269.481 1671.75 270.922C1670.37 272.363 1668.52 273.314 1666.48 273.634C1664.44 273.954 1662.31 273.626 1660.42 272.699C1658.53 271.772 1656.96 270.294 1655.97 268.486C1655.93 268.418 1655.89 268.348 1655.86 268.278C1653.73 270.001 1651.49 271.414 1649.24 272.431C1641.2 274.964 1639.61 278.16 1624.01 270.427C1608.41 262.694 1609.55 260.254 1606.58 251.283C1603.61 242.313 1606.32 236.105 1610.11 228.477L1615.55 231.172ZM1666.21 260.285C1665.35 259.922 1664.41 259.807 1663.52 259.947C1662.39 261.598 1661.14 263.156 1659.8 264.592C1659.86 265.212 1660.04 265.825 1660.35 266.39C1660.84 267.266 1661.6 267.982 1662.51 268.432C1663.43 268.881 1664.46 269.04 1665.45 268.885C1666.44 268.729 1667.34 268.268 1668.01 267.569C1668.68 266.871 1669.09 265.971 1669.17 265.006C1669.25 264.04 1669.01 263.059 1668.48 262.209C1667.94 261.359 1667.15 260.684 1666.21 260.285ZM1618.53 232.002C1618.55 232.029 1626.86 241.67 1637.07 241.452L1638.04 241.416C1648.23 241.199 1656.53 250.807 1656.59 250.866C1653.82 256.428 1649.16 260.77 1643.63 262.934C1638.11 265.097 1632.17 264.907 1627.12 262.405C1622.07 259.904 1618.33 255.295 1616.72 249.594C1615.11 243.892 1615.76 237.564 1618.53 232.002ZM241.177 221.264C242.468 220.919 243.834 221.825 244.227 223.288C244.62 224.752 243.891 226.219 242.6 226.564L174.005 244.907C172.714 245.252 171.348 244.345 170.954 242.882C170.562 241.418 171.291 239.952 172.582 239.606L241.177 221.264ZM235.467 173.912C238.032 173.061 240.794 173.008 243.343 173.763C245.892 174.517 248.092 176.038 249.616 178.1C251.14 180.161 251.907 182.655 251.803 185.208C251.699 187.761 250.731 190.24 249.041 192.274C247.351 194.309 245.028 195.792 242.42 196.504C239.812 197.215 237.056 197.117 234.562 196.224C234.467 196.19 234.374 196.152 234.281 196.116C233.696 199.574 232.742 202.828 231.451 205.702C225.876 214.938 227.062 219.356 205.498 225.122C183.935 230.888 182.956 227.581 172.481 221.472C162.006 215.363 159.336 207.105 156.505 196.562L164.02 194.552C168.042 209.531 176.407 215.028 176.451 215.057C176.456 215.062 184.82 223.082 203.602 218.06C222.389 213.036 224.474 202.215 224.474 202.215C224.503 202.113 228.022 189.691 224.715 177.374L232.599 175.266C233.489 174.707 234.452 174.249 235.467 173.912ZM193.888 185.797C203.445 176.455 220.145 178.757 220.191 178.764C222.255 186.451 221.462 194.564 217.99 201.319C214.516 208.074 208.646 212.918 201.67 214.783C194.694 216.649 187.184 215.383 180.792 211.267C174.4 207.15 169.649 200.519 167.585 192.831C167.678 192.844 184.345 195.126 193.888 185.797ZM241.255 179.604C240.019 179.239 238.679 179.265 237.436 179.678C236.305 180.053 235.309 180.731 234.567 181.624C234.884 184.168 235.007 186.725 234.942 189.238C235.521 189.786 236.22 190.217 236.998 190.496C238.207 190.929 239.543 190.977 240.808 190.632C242.072 190.287 243.198 189.567 244.018 188.58C244.837 187.594 245.307 186.392 245.358 185.154C245.408 183.916 245.036 182.707 244.297 181.707C243.558 180.708 242.491 179.97 241.255 179.604ZM1485.11 123.16C1486.13 122.976 1487.14 123.77 1487.35 124.934C1487.56 126.097 1486.89 127.189 1485.87 127.374L1431.33 137.172C1430.31 137.356 1429.3 136.563 1429.09 135.399C1428.88 134.236 1429.55 133.143 1430.57 132.958L1485.11 123.16ZM721.034 112.183C721.743 111.993 722.494 112.491 722.71 113.295C722.926 114.099 722.525 114.905 721.816 115.095L684.124 125.174C683.415 125.363 682.664 124.865 682.449 124.062C682.233 123.257 682.634 122.452 683.343 122.262L721.034 112.183ZM1483.76 85.9707C1485.81 85.4756 1487.96 85.6141 1489.89 86.3662C1491.83 87.1185 1493.44 88.4445 1494.49 90.1465C1495.54 91.8488 1495.97 93.8377 1495.73 95.8164C1495.48 97.795 1494.56 99.6597 1493.12 101.132C1491.67 102.604 1489.77 103.606 1487.69 103.989C1485.62 104.373 1483.48 104.116 1481.6 103.259C1481.53 103.226 1481.46 103.191 1481.39 103.157C1480.71 105.808 1479.75 108.276 1478.56 110.427C1473.62 117.246 1474.26 120.759 1457.11 123.839C1439.97 126.919 1439.42 124.283 1431.68 118.851C1423.93 113.418 1422.4 106.824 1420.88 98.4414L1426.86 97.3682C1429.01 109.308 1435.18 114.122 1435.18 114.122C1435.23 114.171 1441.22 120.896 1456.1 118.223C1471.02 115.542 1473.36 107.279 1473.36 107.262C1473.39 107.206 1476.94 97.7662 1475.18 87.9619L1481.44 86.8359C1482.17 86.4595 1482.95 86.1668 1483.76 85.9707ZM717.896 86.165C719.305 85.6971 720.823 85.6686 722.224 86.083C723.624 86.4974 724.833 87.333 725.67 88.4658C726.508 89.5986 726.93 90.9682 726.873 92.3711C726.816 93.7739 726.283 95.1359 725.355 96.2539C724.426 97.372 723.15 98.1872 721.717 98.5781C720.284 98.969 718.77 98.9148 717.4 98.4238C717.348 98.4052 717.296 98.3851 717.244 98.3652C716.923 100.265 716.399 102.053 715.69 103.632C712.627 108.707 713.278 111.135 701.429 114.304C689.581 117.472 689.043 115.654 683.287 112.297C677.532 108.94 676.065 104.403 674.509 98.6094L678.638 97.5059C680.854 105.758 685.469 108.772 685.469 108.772C685.5 108.802 690.099 113.173 700.387 110.422C710.67 107.672 711.847 101.762 711.856 101.717C711.856 101.717 713.813 94.8625 711.989 88.0664L716.321 86.9082C716.81 86.6015 717.338 86.3502 717.896 86.165ZM1450.65 92.5049C1458.68 85.8744 1471.49 88.7302 1471.57 88.748C1472.67 94.8598 1471.52 101.117 1468.38 106.144C1465.24 111.17 1460.36 114.554 1454.81 115.551C1449.27 116.547 1443.51 115.074 1438.81 111.457C1434.11 107.84 1430.85 102.374 1429.74 96.2627C1429.77 96.2689 1442.61 99.1487 1450.65 92.5049ZM695.299 92.459C700.581 87.6061 709.459 88.8251 709.502 88.8311C710.636 93.0549 710.201 97.5131 708.293 101.225C706.385 104.936 703.159 107.597 699.326 108.622C695.493 109.647 691.366 108.953 687.854 106.69C684.342 104.428 681.731 100.784 680.597 96.5605C680.597 96.5605 689.507 97.7964 694.801 92.9316L695.299 92.459ZM1487.89 90.7734C1486.95 90.4087 1485.91 90.3411 1484.92 90.5811C1484.01 90.7995 1483.19 91.2636 1482.56 91.9102C1482.64 93.908 1482.57 95.9029 1482.35 97.8516C1482.77 98.3156 1483.28 98.6962 1483.87 98.9639C1484.78 99.3794 1485.82 99.5033 1486.82 99.3174C1487.83 99.1314 1488.75 98.6465 1489.45 97.9326C1490.15 97.2189 1490.6 96.3148 1490.72 95.3555C1490.84 94.3961 1490.63 93.4318 1490.12 92.6064C1489.61 91.7811 1488.83 91.1383 1487.89 90.7734ZM721.076 89.293C720.398 89.0922 719.662 89.1053 718.979 89.332C718.357 89.5386 717.809 89.913 717.401 90.4043C717.575 91.8011 717.643 93.2044 717.608 94.584C717.926 94.8855 718.309 95.1239 718.738 95.2773C719.402 95.5154 720.137 95.541 720.831 95.3516C721.526 95.162 722.145 94.7668 722.595 94.2246C723.045 93.6826 723.304 93.022 723.331 92.3418C723.359 91.6616 723.153 90.9974 722.747 90.4482C722.341 89.8991 721.755 89.4939 721.076 89.293ZM1112.75 51.6377L1192.32 58.0332C1193.82 58.1538 1194.93 59.6274 1194.79 61.3252C1194.65 63.0231 1193.33 64.3028 1191.83 64.1826L1112.25 57.7871C1110.76 57.6667 1109.65 56.1921 1109.79 54.4941C1109.93 52.7962 1111.25 51.5173 1112.75 51.6377ZM1120.71 0.700195C1119.3 18.1232 1126.12 27.0967 1126.12 27.0967C1126.18 27.2012 1132.05 38.7522 1153.74 40.4961C1175.49 42.244 1181.81 31.6168 1181.83 31.5732C1181.89 31.4935 1190.32 19.6563 1191.48 5.35645L1200.63 6.0918C1201.78 5.83563 1202.97 5.71411 1204.17 5.73926C1207.21 5.80298 1210.16 6.78701 1212.57 8.54492C1214.98 10.3031 1216.74 12.742 1217.57 15.499C1218.41 18.2561 1218.28 21.1854 1217.2 23.8506C1216.13 26.5154 1214.17 28.7752 1211.61 30.2939C1209.05 31.8127 1206.03 32.5095 1203 32.2812C1199.97 32.0529 1197.09 30.9106 1194.78 29.0254C1194.7 28.9538 1194.61 28.8791 1194.53 28.8057C1192.6 32.2479 1190.36 35.3347 1187.9 37.8926C1178.51 45.5754 1178.1 50.6999 1153.08 48.6895C1128.07 46.6789 1128.28 42.8076 1119.5 32.3945C1110.71 21.9815 1111.01 12.2316 1111.99 0L1120.71 0.700195ZM1125.14 0.220703C1125.17 0.236339 1141.47 8.70038 1155.01 2.95703L1156.29 2.38867C1169.78 -3.33568 1186.02 5.054 1186.16 5.125C1185.44 14.0433 1181.54 22.3392 1175.31 28.1855C1169.08 34.0313 1161.03 36.9501 1152.94 36.2998C1144.84 35.6494 1137.37 31.4826 1132.15 24.7168C1126.94 17.9506 1124.42 9.13897 1125.14 0.220703ZM1204.08 12.5859C1202.74 12.558 1201.43 12.9008 1200.31 13.5664C1199.68 16.3805 1198.84 19.1345 1197.82 21.7715C1198.23 22.5699 1198.81 23.2884 1199.53 23.877C1200.64 24.7911 1202.04 25.3454 1203.51 25.4561C1204.98 25.5665 1206.45 25.2277 1207.69 24.4912C1208.93 23.7549 1209.88 22.6592 1210.4 21.3672C1210.92 20.0751 1210.98 18.655 1210.58 17.3184C1210.17 15.9815 1209.32 14.7978 1208.15 13.9453C1206.98 13.0931 1205.55 12.6169 1204.08 12.5859Z" fill="#324CCE"/>
</svg>
